<?xml version="1.0" standalone="no"?>
<!DOCTYPE svg PUBLIC "-//W3C//DTD SVG 20010904//EN"
 "http://www.w3.org/TR/2001/REC-SVG-20010904/DTD/svg10.dtd">
<svg version="1.0" xmlns="http://www.w3.org/2000/svg"
 width="500.000000pt" height="500.000000pt" viewBox="0 0 500.000000 500.000000"
 preserveAspectRatio="xMidYMid meet">
<metadata>
Created by potrace 1.11, written by Peter Selinger 2001-2013
</metadata>
<g transform="translate(0.000000,500.000000) scale(0.100000,-0.100000)"
fill="#000000" stroke="none">
<path d="M2315 4890 c-593 -50 -1123 -301 -1535 -726 -356 -369 -574 -808
-651 -1319 -28 -182 -30 -483 -5 -660 77 -547 320 -1025 712 -1405 374 -362
828 -583 1349 -656 162 -23 468 -23 630 0 413 58 791 213 1123 460 137 102
376 341 478 478 247 332 402 710 460 1123 23 162 23 468 0 630 -58 413 -213
791 -460 1123 -99 133 -339 375 -466 470 -334 248 -704 404 -1101 462 -152 22
-398 32 -534 20z m1020 -1383 c251 -88 437 -299 539 -609 60 -185 79 -494 43
-694 -71 -393 -281 -675 -577 -774 -121 -41 -222 -50 -582 -50 l-338 0 0 1081
0 1080 418 -3 417 -3 80 -28z m-1245 -755 c0 -468 -4 -811 -10 -862 -21 -174
-71 -292 -159 -381 -108 -107 -226 -148 -462 -156 -140 -5 -287 5 -335 24 -11
4 -14 36 -14 158 l0 153 183 -2 c193 -1 237 6 297 47 45 29 68 71 85 153 12
57 15 207 15 857 l0 787 200 0 200 0 0 -778z"/>
<path d="M2760 2466 l0 -766 168 0 c251 0 331 28 457 162 75 79 124 174 156
298 30 121 38 408 15 534 -46 244 -165 434 -314 504 -55 26 -63 27 -269 30
l-213 3 0 -765z"/>
</g>
</svg>
