<?xml version="1.0" standalone="no"?>
<!DOCTYPE svg PUBLIC "-//W3C//DTD SVG 20010904//EN"
 "http://www.w3.org/TR/2001/REC-SVG-20010904/DTD/svg10.dtd">
<svg version="1.0" xmlns="http://www.w3.org/2000/svg"
 width="558.000000pt" height="558.000000pt" viewBox="0 0 558.000000 558.000000"
 preserveAspectRatio="xMidYMid meet">
<metadata>
Created by potrace 1.11, written by Peter Selinger 2001-2013
</metadata>
<g transform="translate(0.000000,558.000000) scale(0.100000,-0.100000)"
fill="#000000" stroke="none">
<path d="M2547 5570 c-405 -39 -796 -161 -1128 -351 -238 -137 -408 -267 -600
-458 -431 -431 -695 -957 -790 -1572 -19 -121 -23 -185 -23 -399 0 -294 17
-435 84 -694 253 -990 1027 -1761 2018 -2010 253 -63 392 -80 682 -80 214 0
278 4 399 23 615 95 1141 359 1572 790 431 431 695 957 790 1572 33 208 33
590 0 798 -95 615 -359 1141 -790 1572 -430 430 -964 698 -1567 789 -157 24
-501 34 -647 20z m1374 -691 c-29 -241 -46 -302 -127 -461 -105 -204 -247
-275 -382 -191 -95 58 -131 151 -98 251 29 87 138 227 242 312 63 51 376 261
381 256 2 -2 -6 -77 -16 -167z m-2559 -220 c254 -206 289 -231 359 -263 90
-42 166 -56 349 -66 256 -14 353 -47 464 -157 194 -192 171 -495 -48 -655
l-39 -28 -25 41 -24 41 55 49 c143 127 153 324 26 464 -98 107 -170 132 -421
146 -308 17 -383 48 -672 280 -138 111 -191 148 -197 138 -15 -24 -22 -160
-16 -323 5 -162 22 -267 66 -404 l19 -64 -33 -14 c-19 -8 -41 -14 -48 -14 -15
0 -53 117 -82 250 -22 99 -31 408 -16 520 19 142 43 241 57 236 7 -3 109 -82
226 -177z m1994 -540 c6 -11 -34 -89 -110 -212 -260 -420 -375 -765 -426
-1278 -17 -176 -40 -595 -40 -749 0 -355 47 -733 136 -1103 41 -168 44 -154
-51 -222 -35 -25 -65 -49 -67 -55 -2 -6 -22 -4 -53 5 -27 8 -68 19 -90 25 -22
5 -49 15 -58 23 -27 19 -74 268 -107 562 -6 50 -13 225 -16 390 -13 656 71
1289 229 1725 107 294 213 498 451 863 l76 118 61 -42 c33 -24 62 -46 65 -50z
m-2591 -453 c230 -207 329 -270 490 -312 60 -15 107 -18 340 -16 203 2 291 -1
355 -12 201 -36 341 -132 413 -284 28 -60 32 -77 32 -157 -1 -118 -26 -183
-102 -266 -48 -51 -97 -89 -117 -89 -3 0 -15 19 -27 42 -17 34 -19 43 -8 46 8
3 40 31 71 62 45 46 60 70 74 116 44 153 -36 308 -200 385 -108 50 -201 62
-440 56 -455 -12 -592 35 -900 312 -50 44 -92 78 -94 76 -15 -15 -31 -157 -32
-270 0 -204 45 -376 140 -539 22 -37 40 -72 40 -76 0 -5 -16 -18 -35 -30 -26
-16 -39 -19 -48 -11 -24 19 -108 189 -138 278 -41 123 -59 235 -59 377 0 148
11 220 52 354 28 91 33 101 47 88 9 -7 75 -66 146 -130z m3016 38 c95 -18 193
-54 389 -144 195 -89 295 -121 404 -127 132 -7 215 13 359 86 64 33 117 58
117 55 0 -14 -139 -278 -173 -329 -67 -100 -228 -285 -249 -285 -4 0 -19 16
-33 35 l-27 34 78 86 c72 78 188 234 181 242 -2 1 -38 -4 -81 -12 -194 -37
-324 -10 -635 132 -91 41 -195 86 -231 98 -282 96 -512 31 -612 -173 -30 -60
-33 -75 -33 -157 0 -78 4 -98 28 -150 16 -33 40 -72 55 -88 l26 -27 -36 -37
-36 -36 -30 34 c-17 19 -43 57 -57 85 -94 185 -66 384 74 536 126 137 301 184
522 142z m1275 -1026 c-115 -284 -130 -315 -193 -410 -39 -60 -164 -188 -183
-188 -4 0 -19 17 -33 39 l-25 38 58 51 c32 29 79 83 105 122 44 67 151 297
142 306 -2 2 -24 -11 -48 -29 -157 -120 -293 -193 -416 -222 -58 -14 -100 -17
-200 -12 -152 6 -193 17 -444 123 -215 90 -285 108 -397 101 -70 -4 -96 -11
-157 -41 -88 -43 -154 -113 -187 -196 -31 -77 -31 -205 0 -274 12 -26 20 -52
17 -56 -3 -4 -21 -17 -41 -29 l-35 -21 -25 55 c-81 176 -42 380 98 518 108
107 236 153 393 144 108 -6 177 -27 393 -118 228 -97 295 -112 446 -107 194 8
257 38 606 297 118 88 218 160 222 160 4 1 -39 -113 -96 -251z m-4747 -147
c202 -131 413 -243 551 -293 95 -34 320 -32 550 6 315 51 477 45 616 -24 150
-73 254 -249 254 -429 0 -168 -122 -291 -320 -322 -135 -21 -261 -1 -617 97
-303 83 -364 103 -499 168 -147 71 -253 143 -345 236 -67 68 -84 92 -147 221
-65 131 -170 409 -155 409 4 0 54 -31 112 -69z m4851 -511 c-135 -363 -355
-618 -687 -798 -244 -132 -633 -263 -868 -292 -368 -46 -665 170 -642 466 14
191 167 349 397 411 110 30 313 24 550 -17 384 -66 637 -38 917 104 100 50
194 116 303 210 41 35 76 61 77 58 2 -4 -20 -68 -47 -142z"/>
<path d="M3718 4805 c-115 -79 -261 -227 -300 -306 -47 -92 -36 -154 36 -198
66 -41 144 -19 204 57 44 56 109 191 136 284 26 91 44 228 29 228 -5 0 -52
-29 -105 -65z"/>
<path d="M401 2313 c79 -184 165 -294 309 -390 159 -106 286 -158 629 -252
325 -90 395 -105 521 -105 127 -1 188 17 254 75 55 49 70 91 63 178 -7 93 -39
171 -98 236 -120 131 -274 151 -664 89 -133 -22 -206 -28 -335 -28 -161 -1
-167 0 -257 31 -97 34 -201 84 -344 164 -48 27 -89 49 -93 49 -3 0 4 -21 15
-47z"/>
<path d="M4875 1806 c-290 -151 -572 -184 -975 -117 -107 18 -240 35 -295 38
-237 14 -430 -73 -512 -229 -23 -45 -28 -65 -28 -133 0 -64 5 -89 23 -123 66
-124 187 -197 357 -216 122 -14 323 26 594 119 411 141 658 305 848 565 38 52
99 151 91 149 -1 -1 -48 -25 -103 -53z"/>
</g>
</svg>
