<?xml version="1.0" encoding="UTF-8" standalone="no"?>
<svg
   xmlns:dc="http://purl.org/dc/elements/1.1/"
   xmlns:cc="http://creativecommons.org/ns#"
   xmlns:rdf="http://www.w3.org/1999/02/22-rdf-syntax-ns#"
   xmlns:svg="http://www.w3.org/2000/svg"
   xmlns="http://www.w3.org/2000/svg"
   version="1.1"
   id="svg2"
   viewBox="0 0 557.77848 557.77848"
   height="157.41748mm"
   width="157.41748mm">
  <defs
     id="defs4" />
  <metadata
     id="metadata7">
    <rdf:RDF>
      <cc:Work
         rdf:about="">
        <dc:format>image/svg+xml</dc:format>
        <dc:type
           rdf:resource="http://purl.org/dc/dcmitype/StillImage" />
        <dc:title></dc:title>
      </cc:Work>
    </rdf:RDF>
  </metadata>
  <g
     transform="translate(-110.91484,-222.46605)"
     id="layer3">
    <circle
       r="277.85645"
       cy="501.35529"
       cx="389.80408"
       id="path4359"
       style="opacity:1;fill:#2e7d32;fill-opacity:1;stroke:#2e7d32;stroke-width:2.06558704;stroke-miterlimit:4;stroke-dasharray:none;stroke-opacity:0.94117647" />
  </g>
  <g
     transform="translate(-110.91484,-222.46605)"
     style="display:inline"
     id="layer1">
    <path
       id="path4234"
       d="m 426.50725,370.6264 c -46.96986,69.06515 -61.60848,122.3263 -67.25984,206.15521 -3.90782,48.51306 -1.48628,99.761 9.60633,147.50029 3.29687,3.55738 17.67414,4.09328 21.04895,7.50024 1.06871,-4.67481 15.04733,-10.28639 16.25765,-14.87003 -12.88278,-45.80602 -18.70028,-93.78144 -17.04575,-141.67903 3.94446,-82.46995 7.10467,-125.74258 52.35878,-195.29248 l 5.81824,-11.03263 -13.52758,-9.77177 z"
       style="fill:#ffffff;fill-opacity:0.94117647;fill-rule:evenodd;stroke:none;stroke-width:3.29999995;stroke-linecap:butt;stroke-linejoin:miter;stroke-miterlimit:4;stroke-dasharray:none;stroke-opacity:0.94117647" />
  </g>
  <g
     transform="translate(-110.91484,-222.46605)"
     id="layer2">
    <path
       id="path4240"
       d="m 328.95852,616.80449 c 10.5961,-12.57125 3.21205,-37.65781 -9.18115,-48.46161 -30.42836,-26.52598 -81.96553,4.3807 -120.94778,-6.10234 -21.7219,-5.84141 -60.01037,-30.86126 -60.01037,-30.86126 0,0 11.60397,34.94324 24.12036,47.56879 18.47402,18.63514 44.4586,29.78003 69.89908,36.20964 31.0678,7.85182 75.46763,26.14872 96.11986,1.64678 z"
       style="fill:none;fill-rule:evenodd;stroke:#ffffff;stroke-width:10;stroke-linecap:butt;stroke-linejoin:miter;stroke-miterlimit:4;stroke-dasharray:none;stroke-opacity:0.94117647" />
    <path
       id="path4255"
       d="m 325.95261,523.40258 c 8.2296,-3.88812 14.80237,-11.15038 17.85301,-19.72578 3.05064,-8.57539 2.54113,-18.35712 -1.38391,-26.56917 -4.74048,-9.91812 -14.08218,-17.12392 -24.34901,-21.05243 -10.26683,-3.92852 -21.44278,-4.8665 -32.43496,-4.75178 -16.9083,0.17646 -34.06366,2.2899 -50.54231,-1.50166 -8.23932,-1.89578 -16.15218,-5.17385 -23.34274,-9.62091 -7.19056,-4.44705 -13.59364,-10.03771 -19.87909,-15.69223 l -18.29337,-16.45711 c -7.21672,20.91824 -8.10192,43.97507 -2.51026,65.38505 3.33521,12.77023 8.93036,24.94682 16.44795,35.79524"
       style="fill:none;fill-rule:evenodd;stroke:#ffffff;stroke-width:10;stroke-linecap:butt;stroke-linejoin:miter;stroke-miterlimit:4;stroke-dasharray:none;stroke-opacity:0.94117647" />
    <path
       id="path4251-8"
       d="m 417.02007,579.73142 c -4.18099,-6.83959 -6.32964,-14.9045 -6.10571,-22.91765 0.22393,-8.01315 2.81963,-15.94547 7.37607,-22.54089 4.37994,-6.33994 10.53238,-11.41348 17.51685,-14.66859 6.98448,-3.2551 14.77945,-4.70215 22.47717,-4.35034 11.98089,0.54756 23.3327,5.27257 34.31236,10.0984 10.97967,4.82582 22.03019,9.78751 33.79968,12.09414 11.7695,2.30662 24.13251,1.76955 35.5164,-2.0052 11.38389,-3.77474 21.42628,-10.67764 31.08981,-17.781 l 22.64836,-16.6481 -10.31459,25.44642 c -3.28528,8.10489 -6.7557,16.19861 -11.62751,23.46137 -4.87182,7.26276 -11.05113,13.66372 -18.24547,18.63601"
       style="fill:none;fill-rule:evenodd;stroke:#ffffff;stroke-width:10;stroke-linecap:butt;stroke-linejoin:miter;stroke-miterlimit:4;stroke-dasharray:none;stroke-opacity:0.94117647" />
    <path
       id="path4251-8-3"
       d="m 352.82048,426.95115 c 7.27513,-3.87281 13.2003,-10.22648 16.55654,-17.75388 3.35623,-7.52741 4.12247,-16.18129 2.14107,-24.1813 -1.89399,-7.64708 -6.24767,-14.61865 -12.08025,-19.9145 -5.83259,-5.29584 -13.10399,-8.93181 -20.77328,-10.73376 -13.43114,-3.15573 -27.58601,-1.19599 -41.17657,-3.57313 -6.79528,-1.18857 -13.42228,-3.3859 -19.51202,-6.62682 -6.08975,-3.24092 -11.56532,-7.5046 -16.93012,-11.84136 L 226.563,304.45138 c -4.03499,17.35851 -5.15448,35.39101 -3.29748,53.11531 1.38794,13.24728 4.4317,26.32023 9.038,38.81819"
       style="fill:none;fill-rule:evenodd;stroke:#ffffff;stroke-width:10;stroke-linecap:butt;stroke-linejoin:miter;stroke-miterlimit:4;stroke-dasharray:none;stroke-opacity:0.94117647" />
    <path
       id="path4251-8-3-1"
       d="m 441.62889,486.26739 c -9.29767,-8.8558 -14.15359,-22.16182 -12.74545,-34.92462 1.40814,-12.76279 9.04811,-24.69012 20.05279,-31.30592 7.47859,-4.49598 16.27311,-6.56221 24.99841,-6.67234 8.72531,-0.11013 17.39861,1.67284 25.6721,4.44638 21.06719,7.0624 40.06233,20.55957 62.04033,23.8263 14.85315,2.20772 30.40508,-0.58441 43.56263,-7.82105 -4.88081,10.49265 -11.02085,20.39886 -18.24632,29.43825 -5.07006,6.34288 -10.67303,12.25965 -16.73049,17.6675"
       style="fill:none;fill-rule:evenodd;stroke:#ffffff;stroke-width:10;stroke-linecap:butt;stroke-linejoin:miter;stroke-miterlimit:4;stroke-dasharray:none;stroke-opacity:0.94117647" />
    <path
       id="path4472"
       d="m 621.40862,578.5638 c -8.09642,22.64942 -22.35091,43.06376 -40.825,58.46688 -22.77294,18.98737 -51.09861,29.97738 -79.48292,38.54811 -17.39422,5.25224 -35.78541,9.74895 -53.58309,6.09009 -8.89885,-1.82943 -17.47298,-5.76647 -24.08834,-11.99329 -6.61535,-6.22681 -11.14809,-14.83438 -11.69574,-23.9028 -0.37088,-6.14145 1.07448,-12.34636 3.88107,-17.82158 2.80659,-5.47521 6.94767,-10.22648 11.82461,-13.97753 9.75388,-7.50209 22.1943,-10.88269 34.48407,-11.50026 21.55793,-1.08331 42.70087,5.76697 64.22857,7.34052 34.1883,2.49897 69.19275,-8.98466 95.25677,-31.25014 z"
       style="fill:none;fill-rule:evenodd;stroke:#ffffff;stroke-width:10;stroke-linecap:butt;stroke-linejoin:miter;stroke-miterlimit:4;stroke-dasharray:none;stroke-opacity:1" />
    <path
       id="path4563"
       d="m 457.95901,356.16629 c -2.03793,-1.17036 -20.65704,-8.01802 -9.18186,-27.99965 5.73759,-9.99082 17.1515,-22.44434 28.91829,-30.13076 21.84036,-14.26679 21.84036,-14.26679 21.84036,-14.26679 0,0 0,0 -2.46257,21.37831 -1.3569,11.77966 -6.85983,25.49596 -12.59742,35.48677 -11.4752,19.98163 -24.47888,16.70247 -26.5168,15.53212 z"
       style="fill:none;fill-rule:evenodd;stroke:#ffffff;stroke-width:8.51479626;stroke-linecap:butt;stroke-linejoin:miter;stroke-miterlimit:4;stroke-dasharray:none;stroke-opacity:1" />
  </g>
</svg>
